<?xml version="1.0" encoding="utf-8"?>
<!-- Generated by IcoMoon.io -->
<!DOCTYPE svg PUBLIC "-//W3C//DTD SVG 1.1//EN" "http://www.w3.org/Graphics/SVG/1.1/DTD/svg11.dtd">
<svg version="1.1" xmlns="http://www.w3.org/2000/svg" xmlns:xlink="http://www.w3.org/1999/xlink" width="14" height="16" viewBox="0 0 14 16">
<path fill="#000" d="M9.143 8q0-0.946-0.67-1.616t-1.616-0.67-1.616 0.67-0.67 1.616 0.67 1.616 1.616 0.67 1.616-0.67 0.67-1.616zM10.375 8q0 1.464-1.027 2.491t-2.491 1.027-2.491-1.027-1.027-2.491 1.027-2.491 2.491-1.027 2.491 1.027 1.027 2.491zM11.339 4.339q0 0.339-0.241 0.58t-0.58 0.241-0.58-0.241-0.241-0.58 0.241-0.58 0.58-0.241 0.58 0.241 0.241 0.58zM6.857 2.375q-0.063 0-0.683-0.004t-0.942 0-0.862 0.027-0.92 0.089-0.638 0.165q-0.446 0.179-0.786 0.518t-0.518 0.786q-0.098 0.259-0.165 0.638t-0.089 0.92-0.027 0.862 0 0.942 0.004 0.683-0.004 0.683 0 0.942 0.027 0.862 0.089 0.92 0.165 0.638q0.179 0.446 0.518 0.786t0.786 0.518q0.259 0.098 0.638 0.165t0.92 0.089 0.862 0.027 0.942 0 0.683-0.004 0.683 0.004 0.942 0 0.862-0.027 0.92-0.089 0.638-0.165q0.446-0.179 0.786-0.518t0.518-0.786q0.098-0.259 0.165-0.638t0.089-0.92 0.027-0.862 0-0.942-0.004-0.683 0.004-0.683 0-0.942-0.027-0.862-0.089-0.92-0.165-0.638q-0.179-0.446-0.518-0.786t-0.786-0.518q-0.259-0.098-0.638-0.165t-0.92-0.089-0.862-0.027-0.942 0-0.683 0.004zM13.714 8q0 2.045-0.045 2.83-0.089 1.857-1.107 2.875t-2.875 1.107q-0.786 0.045-2.83 0.045t-2.83-0.045q-1.857-0.089-2.875-1.107t-1.107-2.875q-0.045-0.786-0.045-2.83t0.045-2.83q0.089-1.857 1.107-2.875t2.875-1.107q0.786-0.045 2.83-0.045t2.83 0.045q1.857 0.089 2.875 1.107t1.107 2.875q0.045 0.786 0.045 2.83z"></path>
</svg>
